# xmcd
#
# Track frame offsets: 
#        150
#        5390
#        32107
#        52060
#        72027
#        86589
#        107682
#        120893
#        143487
#        162185
#        186134
#        204157
#        219976
#        243495
#        260131
#        281083
#        295960
#        318759
#        341999
#
# Disc length: 4657 seconds
#
# Revision: 5
# Processed by: cddbd v1.5.2PL0 Copyright (c) Steve Scherf et al.
# Submitted via: ExactAudioCopy v1.0b5
#
DISCID=13122f13
DTITLE=Schiller - Tag Und Nacht (Limited Edition) - CD 1 (2005)
DYEAR=2005
DGENRE=New Age
TTITLE0=Willkommen
TTITLE1=Nachtflug
TTITLE2=Die Nacht ... Du Bist Nicht Allein (Mit Thomas D)
TTITLE3=What's Coming (Mit Jette Von Roth)
TTITLE4=Sonnenaufgang
TTITLE5=Miles And Miles (Mit Moya Brennan)
TTITLE6=Schritt Der Zeit
TTITLE7=I Know (Mit Kim Sanders)
TTITLE8=Morgentau (Mit Mike Oldfield)
TTITLE9=Berlin Bombay
TTITLE10=Der Tag... Du Bist Erwacht (Mit Jette Von Roth)
TTITLE11=Lichtwerk
TTITLE12=Falling (Mit Moya Brennan)
TTITLE13=Jahresringe
TTITLE14=I Saved You (Mit Kim Sanders)
TTITLE15=Irrlicht
TTITLE16=Feuerwerk
TTITLE17=Sleepy Strorm (Mit Jette Von Roth)
TTITLE18=Eine Stunde (Aus Dem Film "Yamamoto's Labyrinth")
EXTD=YEAR: 2005
EXTT0=
EXTT1=
EXTT2=
EXTT3=
EXTT4=
EXTT5=
EXTT6=
EXTT7=
EXTT8=
EXTT9=
EXTT10=
EXTT11=
EXTT12=
EXTT13=
EXTT14=
EXTT15=
EXTT16=
EXTT17=
EXTT18=
PLAYORDER=
